<svg xmlns="http://www.w3.org/2000/svg" width="256" height="256" viewBox="0 0 100 100">
  <rect width="100" height="100" rx="20" fill="#000000"></rect>
  <path d="M44.69 79.47Q33.98 79.47 28.67 72.81Q23.36 66.16 23.36 54.36L23.36 54.36Q23.36 44.55 27.59 36.36Q31.82 28.17 39.38 23.36Q46.94 18.54 56.39 18.54L56.39 18.54Q65.57 18.54 71.11 24.80Q76.64 31.05 76.64 43.47L76.64 43.47Q76.64 50.13 74.30 56.61Q71.96 63.09 67.64 68.22L67.64 68.22Q75.29 75.42 75.29 76.32L75.29 76.32Q75.29 78.66 73.89 80.06Q72.50 81.45 69.98 81.45L69.98 81.45Q68.09 81.45 60.44 74.70L60.44 74.70Q53.24 79.47 44.69 79.47L44.69 79.47ZM45.95 71.38Q49.82 71.38 53.78 68.13L53.78 68.13Q50.99 64.89 48.34 61.02Q45.68 57.15 45.68 56.07L45.68 56.07Q45.68 53.64 46.63 52.70Q47.57 51.75 49.73 51.75L49.73 51.75Q50 51.75 53.42 54.99L53.42 54.99Q54.77 56.34 59.63 60.84L59.63 60.84Q61.97 56.70 63.28 51.71Q64.58 46.71 64.58 41.31L64.58 41.31Q64.58 35.01 62.28 31.32Q59.99 27.63 54.95 27.63L54.95 27.63Q49.19 27.63 44.69 31.95Q40.19 36.27 37.67 42.98Q35.15 49.68 35.15 56.52L35.15 56.52Q35.15 60.66 36.73 64.04Q38.30 67.41 40.82 69.39Q43.34 71.38 45.95 71.38L45.95 71.38Z" fill="#ffdead"></path>
</svg>