<svg width="107.246" height="49.532" viewBox="0 0 107.246 49.532" xmlns="http://www.w3.org/2000/svg">
  <g id="svgGroup" stroke-linecap="round" fill-rule="evenodd" font-size="9pt" stroke="navajowhite" stroke-width="0.25mm" fill="navajowhite" style="stroke:navajowhite;stroke-width:0.25mm;fill:navajowhite">
    <path d="M 7.422 30.488 A 75.441 75.441 0 0 0 9.004 28.34 A 49.185 49.185 0 0 0 10.086 26.751 A 44.09 44.09 0 0 0 10.42 26.231 A 46.868 46.868 0 0 0 11.264 24.844 A 39.721 39.721 0 0 0 11.611 24.238 A 26.89 26.89 0 0 0 12.107 23.316 A 19.987 19.987 0 0 0 12.52 22.461 A 0.871 0.871 0 0 1 12.618 22.294 A 0.652 0.652 0 0 1 12.691 22.212 A 15.309 15.309 0 0 1 12.832 21.718 Q 13.008 21.139 13.203 20.694 Q 13.516 19.981 13.789 19.61 L 14.063 19.238 Q 14.16 19.121 14.307 19.063 Q 14.453 19.004 14.609 19.004 A 0.71 0.71 0 0 1 14.895 19.06 A 0.679 0.679 0 0 1 15.127 19.229 Q 15.332 19.453 15.332 19.746 Q 15.332 19.863 15.283 19.981 A 3.745 3.745 0 0 1 15.176 20.215 A 9.59 9.59 0 0 1 15.12 20.315 Q 15.027 20.477 14.871 20.739 A 55.264 55.264 0 0 1 14.863 20.752 Q 14.649 21.113 14.414 21.699 A 7.339 7.339 0 0 0 14.207 22.294 Q 14.125 22.566 14.052 22.87 A 12.329 12.329 0 0 0 14.004 23.076 A 7.056 7.056 0 0 0 13.872 23.92 Q 13.828 24.373 13.828 24.883 Q 13.828 25.622 14.017 26.132 A 1.88 1.88 0 0 0 14.287 26.631 A 1.494 1.494 0 0 0 15.37 27.216 A 2.169 2.169 0 0 0 15.586 27.227 A 1.351 1.351 0 0 0 15.889 27.19 Q 16.124 27.136 16.397 27.002 A 2.67 2.67 0 0 0 16.865 26.706 Q 17.082 26.536 17.295 26.309 A 3.809 3.809 0 0 0 17.729 25.744 Q 17.908 25.461 18.064 25.123 A 6.175 6.175 0 0 0 18.066 25.117 A 4.596 4.596 0 0 0 18.353 24.278 A 6.338 6.338 0 0 0 18.496 23.418 L 18.789 20.059 A 0.779 0.779 0 0 1 19.043 19.571 A 0.73 0.73 0 0 1 19.551 19.375 Q 19.883 19.375 20.078 19.619 A 0.867 0.867 0 0 1 20.274 20.176 L 20.02 23.418 A 3.091 3.091 0 0 0 20.008 23.597 Q 19.997 23.895 20.031 24.3 A 10.077 10.077 0 0 0 20.049 24.492 A 6.103 6.103 0 0 0 20.332 25.801 A 3.074 3.074 0 0 0 20.729 26.6 A 2.788 2.788 0 0 0 20.977 26.904 A 1.428 1.428 0 0 0 21.896 27.352 A 1.973 1.973 0 0 0 22.109 27.363 A 2.025 2.025 0 0 0 22.952 27.176 A 2.443 2.443 0 0 0 23.106 27.1 A 4.127 4.127 0 0 0 23.758 26.659 A 4.935 4.935 0 0 0 24.043 26.406 A 6.64 6.64 0 0 0 24.825 25.506 A 7.303 7.303 0 0 0 24.873 25.44 Q 25.254 24.903 25.576 24.356 A 13.984 13.984 0 0 0 25.928 23.723 A 11.284 11.284 0 0 0 26.133 23.311 A 61.15 61.15 0 0 0 26.298 22.958 Q 26.362 22.819 26.418 22.695 A 30.21 30.21 0 0 0 26.524 22.461 A 0.846 0.846 0 0 1 26.649 22.261 A 0.715 0.715 0 0 1 26.78 22.141 A 7.011 7.011 0 0 1 27.096 21.614 A 5.225 5.225 0 0 1 27.656 20.908 A 5.642 5.642 0 0 1 28.16 20.437 Q 28.494 20.163 28.828 19.99 A 5.108 5.108 0 0 1 29.103 19.858 Q 29.487 19.688 29.707 19.688 Q 30.039 19.688 30.205 19.863 A 0.593 0.593 0 0 1 30.354 20.157 A 0.861 0.861 0 0 1 30.371 20.332 Q 30.371 20.664 30.166 20.83 Q 29.961 20.996 29.649 21.153 A 3.019 3.019 0 0 0 29.368 21.314 Q 29.229 21.403 29.083 21.515 A 5.205 5.205 0 0 0 28.984 21.592 A 3.188 3.188 0 0 0 28.569 21.997 A 4.03 4.03 0 0 0 28.33 22.305 A 3.522 3.522 0 0 0 28.009 22.87 A 4.514 4.514 0 0 0 27.832 23.321 A 3.767 3.767 0 0 0 27.665 24.096 A 4.81 4.81 0 0 0 27.637 24.629 A 3.751 3.751 0 0 0 27.733 25.492 A 3.323 3.323 0 0 0 27.832 25.83 A 2.8 2.8 0 0 0 28.201 26.546 A 2.542 2.542 0 0 0 28.399 26.787 Q 28.77 27.188 29.277 27.412 A 2.639 2.639 0 0 0 30.086 27.621 A 3.238 3.238 0 0 0 30.41 27.637 Q 31.481 27.637 32.2 27.158 A 2.506 2.506 0 0 0 32.256 27.119 A 3.434 3.434 0 0 0 33.379 25.801 Q 32.227 25.196 31.484 24.082 A 4.406 4.406 0 0 1 30.742 21.582 Q 30.742 20.567 31.189 19.893 A 2.321 2.321 0 0 1 31.279 19.766 A 1.806 1.806 0 0 1 31.836 19.273 Q 32.215 19.063 32.695 19.063 Q 33.223 19.063 33.691 19.317 A 2.061 2.061 0 0 1 34.185 19.695 A 2.863 2.863 0 0 1 34.522 20.117 A 3.524 3.524 0 0 1 34.81 20.656 Q 34.977 21.04 35.098 21.524 Q 35.28 22.254 35.308 23.225 A 12.406 12.406 0 0 1 35.313 23.574 A 5.563 5.563 0 0 1 35.239 24.461 A 6.647 6.647 0 0 1 35.156 24.883 Q 35.274 24.903 35.391 24.903 L 35.645 24.903 A 4.847 4.847 0 0 0 36.274 24.863 A 3.642 3.642 0 0 0 36.836 24.746 Q 37.363 24.59 37.793 24.278 Q 38.223 23.965 38.565 23.477 A 7.287 7.287 0 0 0 38.93 22.896 A 9.604 9.604 0 0 0 39.107 22.568 A 0.994 0.994 0 0 1 39.141 22.461 A 25.194 25.194 0 0 1 39.653 21.318 Q 40.163 20.258 40.633 19.597 A 5.895 5.895 0 0 1 40.791 19.385 A 4.088 4.088 0 0 1 41.188 18.942 Q 41.714 18.442 42.235 18.402 A 1.181 1.181 0 0 1 42.324 18.399 A 1.496 1.496 0 0 1 42.691 18.442 A 1.153 1.153 0 0 1 43.086 18.623 Q 43.399 18.848 43.584 19.219 A 3.081 3.081 0 0 1 43.807 19.82 A 3.61 3.61 0 0 1 43.858 20.039 Q 43.945 20.488 43.945 20.957 A 7.454 7.454 0 0 1 43.942 21.157 Q 43.933 21.494 43.897 22.051 A 55.563 55.563 0 0 1 43.84 22.82 A 68.25 68.25 0 0 1 43.77 23.643 Q 43.691 24.492 43.623 25.332 A 100.706 100.706 0 0 1 43.59 25.735 Q 43.541 26.304 43.498 26.725 A 33.095 33.095 0 0 1 43.496 26.738 A 37.047 37.047 0 0 1 43.833 26.062 A 49.882 49.882 0 0 1 44.219 25.322 Q 44.629 24.551 45.098 23.76 A 37.005 37.005 0 0 1 46.084 22.188 A 19.764 19.764 0 0 1 47.168 20.703 A 5.24 5.24 0 0 1 47.594 20.244 Q 47.828 20.022 48.064 19.865 A 2.706 2.706 0 0 1 48.311 19.717 A 2.982 2.982 0 0 1 48.767 19.521 Q 49.032 19.434 49.281 19.418 A 1.746 1.746 0 0 1 49.395 19.414 A 2.191 2.191 0 0 1 50.004 19.494 A 1.558 1.558 0 0 1 50.899 20.156 A 2.879 2.879 0 0 1 51.306 21.162 A 4.065 4.065 0 0 1 51.387 21.992 A 5.53 5.53 0 0 1 51.383 22.198 Q 51.379 22.29 51.373 22.392 A 11.077 11.077 0 0 1 51.358 22.608 A 73.521 73.521 0 0 0 51.328 22.981 A 88.805 88.805 0 0 0 51.299 23.379 A 503.501 503.501 0 0 0 51.24 24.209 A 12.232 12.232 0 0 0 51.215 24.715 A 10.116 10.116 0 0 0 51.211 25 A 8.204 8.204 0 0 0 51.238 25.681 A 7.276 7.276 0 0 0 51.26 25.899 A 3.216 3.216 0 0 0 51.325 26.278 Q 51.372 26.476 51.443 26.645 A 2.031 2.031 0 0 0 51.445 26.651 A 1.292 1.292 0 0 0 51.63 26.962 A 1.101 1.101 0 0 0 51.836 27.158 A 0.912 0.912 0 0 0 52.15 27.303 Q 52.278 27.336 52.429 27.343 A 1.725 1.725 0 0 0 52.5 27.344 A 2.022 2.022 0 0 0 53.434 27.108 A 2.908 2.908 0 0 0 53.945 26.768 A 7.703 7.703 0 0 0 55.015 25.693 A 8.849 8.849 0 0 0 55.244 25.401 A 12.574 12.574 0 0 0 56.196 23.943 A 11.512 11.512 0 0 0 56.279 23.789 A 28.137 28.137 0 0 0 56.532 23.307 Q 56.786 22.81 56.934 22.461 A 0.787 0.787 0 0 1 57.084 22.237 A 0.718 0.718 0 0 1 57.217 22.129 A 0.736 0.736 0 0 1 57.32 22.074 A 6.785 6.785 0 0 1 57.791 21.304 A 5.601 5.601 0 0 1 58.438 20.547 Q 59.238 19.766 60.205 19.375 A 5.557 5.557 0 0 1 61.213 19.07 A 4.433 4.433 0 0 1 62.07 18.985 Q 62.676 18.985 63.184 19.151 A 6.609 6.609 0 0 1 63.6 19.301 Q 63.787 19.377 63.948 19.458 A 3.75 3.75 0 0 1 64.053 19.512 A 5.255 5.255 0 0 1 64.262 19.631 Q 64.472 19.757 64.605 19.87 A 1.555 1.555 0 0 1 64.609 19.873 Q 64.805 20.039 64.824 20.059 A 1.022 1.022 0 0 1 64.958 20.258 A 0.721 0.721 0 0 1 65.039 20.586 A 0.723 0.723 0 0 1 64.838 21.089 A 0.94 0.94 0 0 1 64.824 21.104 A 0.747 0.747 0 0 1 64.61 21.263 A 0.665 0.665 0 0 1 64.316 21.328 A 0.749 0.749 0 0 1 64.006 21.265 A 0.727 0.727 0 0 1 63.789 21.113 Q 63.75 21.074 63.613 20.967 Q 63.477 20.86 63.242 20.742 A 2.498 2.498 0 0 0 63.003 20.639 Q 62.857 20.584 62.686 20.537 Q 62.368 20.451 61.966 20.449 A 3.855 3.855 0 0 0 61.953 20.449 A 3.06 3.06 0 0 0 61.247 20.536 A 4.145 4.145 0 0 0 60.664 20.723 A 3.548 3.548 0 0 0 59.631 21.367 A 4.22 4.22 0 0 0 59.414 21.572 A 4.339 4.339 0 0 0 58.786 22.395 A 5.591 5.591 0 0 0 58.467 23.018 A 4.348 4.348 0 0 0 58.171 24.024 Q 58.086 24.515 58.086 25.078 Q 58.086 25.449 58.164 25.83 Q 58.242 26.211 58.438 26.524 Q 58.633 26.836 58.965 27.031 A 1.351 1.351 0 0 0 59.362 27.184 Q 59.556 27.227 59.785 27.227 Q 60.137 27.227 60.596 26.992 A 2.518 2.518 0 0 0 61.069 26.675 Q 61.263 26.511 61.45 26.298 A 4.203 4.203 0 0 0 61.475 26.27 A 4.368 4.368 0 0 0 61.869 25.728 Q 62.063 25.416 62.236 25.039 A 5.202 5.202 0 0 0 62.527 24.229 Q 62.632 23.844 62.697 23.407 A 8.567 8.567 0 0 0 62.715 23.281 A 0.725 0.725 0 0 1 62.969 22.822 A 0.752 0.752 0 0 1 63.477 22.637 A 0.63 0.63 0 0 1 63.916 22.813 A 0.848 0.848 0 0 1 63.955 22.852 Q 64.16 23.067 64.18 23.34 Q 64.199 23.711 64.258 24.385 A 6.403 6.403 0 0 0 64.522 25.723 A 3.409 3.409 0 0 0 64.898 26.549 A 3.041 3.041 0 0 0 65.137 26.875 A 1.34 1.34 0 0 0 66.03 27.349 A 1.921 1.921 0 0 0 66.27 27.363 A 1.822 1.822 0 0 0 66.989 27.212 A 2.26 2.26 0 0 0 67.197 27.11 Q 67.656 26.856 68.096 26.436 A 7.335 7.335 0 0 0 68.733 25.74 A 8.515 8.515 0 0 0 68.936 25.479 A 13.784 13.784 0 0 0 69.668 24.395 A 15.773 15.773 0 0 0 70.053 23.726 A 13.177 13.177 0 0 0 70.254 23.34 A 62.846 62.846 0 0 0 70.433 22.978 Q 70.504 22.836 70.566 22.706 A 33.213 33.213 0 0 0 70.684 22.461 A 0.787 0.787 0 0 1 70.776 22.305 A 32.095 32.095 0 0 1 70.663 21.42 A 36.235 36.235 0 0 1 70.596 20.781 A 47.013 47.013 0 0 1 70.391 17.305 A 162.971 162.971 0 0 1 70.361 15.591 A 139.106 139.106 0 0 1 70.352 13.965 Q 70.352 11.647 70.455 9.805 A 46.731 46.731 0 0 1 70.527 8.721 Q 70.703 6.504 71.006 4.951 A 19.96 19.96 0 0 1 71.226 3.953 Q 71.446 3.066 71.709 2.432 A 8.634 8.634 0 0 1 71.99 1.818 Q 72.142 1.52 72.3 1.279 A 3.774 3.774 0 0 1 72.559 0.928 Q 72.906 0.513 73.264 0.302 A 1.736 1.736 0 0 1 73.477 0.196 A 2.582 2.582 0 0 1 74.012 0.035 A 2.154 2.154 0 0 1 74.395 0 A 2.036 2.036 0 0 1 75.674 0.43 A 2.947 2.947 0 0 1 76.245 1.021 A 4.051 4.051 0 0 1 76.611 1.631 A 5.704 5.704 0 0 1 76.928 2.425 Q 77.055 2.823 77.147 3.282 A 9.928 9.928 0 0 1 77.188 3.496 A 12.301 12.301 0 0 1 77.346 4.795 A 15.74 15.74 0 0 1 77.383 5.899 Q 77.383 7.988 76.934 10.215 A 40.98 40.98 0 0 1 75.772 14.658 A 58.858 58.858 0 0 1 74.18 19.014 A 148.017 148.017 0 0 1 73.306 21.096 A 127.949 127.949 0 0 1 72.441 23.067 A 13.318 13.318 0 0 0 72.735 24.667 A 12.056 12.056 0 0 0 72.793 24.893 A 7.704 7.704 0 0 0 73.098 25.803 A 6.082 6.082 0 0 0 73.399 26.436 A 4.006 4.006 0 0 0 73.8 27.037 A 3.068 3.068 0 0 0 74.277 27.51 Q 74.785 27.91 75.449 27.91 A 2.251 2.251 0 0 0 76.69 27.535 A 2.695 2.695 0 0 0 76.699 27.529 A 3.645 3.645 0 0 0 77.626 26.656 A 4.207 4.207 0 0 0 77.715 26.533 A 4.925 4.925 0 0 0 78.291 25.424 A 5.712 5.712 0 0 0 78.389 25.137 Q 78.633 24.356 78.633 23.535 A 5.813 5.813 0 0 0 78.525 22.432 A 4.085 4.085 0 0 0 78.362 21.827 A 3.32 3.32 0 0 0 78.193 21.436 A 2.454 2.454 0 0 0 77.924 21.016 A 1.992 1.992 0 0 0 77.637 20.723 A 1.196 1.196 0 0 0 76.937 20.453 A 1.534 1.534 0 0 0 76.836 20.449 A 1.37 1.37 0 0 0 76.632 20.464 Q 76.423 20.495 76.289 20.596 A 1.134 1.134 0 0 0 76.118 20.752 A 0.897 0.897 0 0 0 75.996 20.928 A 1.167 1.167 0 0 0 75.918 21.111 A 0.899 0.899 0 0 0 75.879 21.289 A 7.686 7.686 0 0 0 75.871 21.361 Q 75.862 21.457 75.86 21.505 A 0.516 0.516 0 0 0 75.859 21.524 Q 75.859 21.797 75.977 22.071 Q 76.079 22.31 76.346 22.504 A 1.758 1.758 0 0 0 76.426 22.559 Q 76.758 22.793 76.758 23.203 A 0.791 0.791 0 0 1 76.724 23.442 A 0.625 0.625 0 0 1 76.533 23.731 A 0.818 0.818 0 0 1 76.304 23.874 A 0.709 0.709 0 0 1 76.035 23.926 A 1.102 1.102 0 0 1 75.342 23.692 A 2.039 2.039 0 0 1 74.912 23.232 A 2.41 2.41 0 0 1 74.824 23.096 Q 74.609 22.735 74.492 22.324 A 3.23 3.23 0 0 1 74.404 21.929 A 2.41 2.41 0 0 1 74.375 21.563 A 2.878 2.878 0 0 1 74.459 20.857 A 2.537 2.537 0 0 1 74.57 20.518 A 2.512 2.512 0 0 1 74.965 19.854 A 2.331 2.331 0 0 1 75.108 19.697 Q 75.449 19.356 75.889 19.17 A 2.361 2.361 0 0 1 76.816 18.985 A 3.036 3.036 0 0 1 77.566 19.073 A 2.417 2.417 0 0 1 78.272 19.375 Q 78.887 19.766 79.297 20.41 A 4.596 4.596 0 0 1 79.803 21.513 A 5.432 5.432 0 0 1 79.902 21.875 A 7.143 7.143 0 0 1 80.098 23.535 Q 80.098 24.024 80.039 24.492 A 1.945 1.945 0 0 0 80.097 24.599 Q 80.162 24.71 80.26 24.854 A 7.228 7.228 0 0 0 80.293 24.903 Q 80.469 25.156 80.762 25.391 A 2.703 2.703 0 0 0 81.128 25.636 A 3.521 3.521 0 0 0 81.465 25.801 A 2.108 2.108 0 0 0 81.962 25.942 A 2.893 2.893 0 0 0 82.422 25.977 A 1.367 1.367 0 0 0 82.926 25.876 Q 83.108 25.804 83.294 25.681 A 2.604 2.604 0 0 0 83.389 25.615 A 5.157 5.157 0 0 0 83.996 25.095 A 6.373 6.373 0 0 0 84.346 24.717 Q 84.805 24.18 85.195 23.565 Q 85.573 22.969 85.823 22.456 A 8.16 8.16 0 0 0 85.84 22.422 A 0.748 0.748 0 0 1 86.011 22.195 A 0.709 0.709 0 0 1 86.113 22.119 A 0.734 0.734 0 0 1 86.213 22.069 A 27.613 27.613 0 0 1 86.016 20.752 A 39.088 39.088 0 0 1 85.771 18.102 A 35.471 35.471 0 0 1 85.752 17.735 A 69.8 69.8 0 0 1 85.705 16.516 Q 85.689 15.96 85.685 15.462 A 39.918 39.918 0 0 1 85.684 15.137 A 54.294 54.294 0 0 1 85.744 12.61 A 60.37 60.37 0 0 1 85.791 11.738 A 44.52 44.52 0 0 1 86.133 8.301 A 34.56 34.56 0 0 1 86.556 5.88 A 30.101 30.101 0 0 1 86.729 5.117 A 18.716 18.716 0 0 1 87.097 3.789 Q 87.323 3.082 87.588 2.481 A 7.914 7.914 0 0 1 88.012 1.645 Q 88.345 1.081 88.731 0.684 A 2.363 2.363 0 0 1 89.28 0.255 A 1.861 1.861 0 0 1 90.195 0.02 A 2.357 2.357 0 0 1 90.978 0.147 A 2.162 2.162 0 0 1 91.358 0.322 A 1.966 1.966 0 0 1 91.867 0.76 Q 92.065 0.994 92.227 1.309 A 4.53 4.53 0 0 1 92.477 1.905 Q 92.654 2.42 92.774 3.086 A 11.06 11.06 0 0 1 92.893 3.975 Q 92.94 4.468 92.958 5.033 A 22.895 22.895 0 0 1 92.969 5.762 A 20.35 20.35 0 0 1 92.698 9.02 A 23.166 23.166 0 0 1 92.559 9.795 A 34.118 34.118 0 0 1 91.445 13.985 A 42.715 42.715 0 0 1 89.785 18.194 Q 88.828 20.293 87.734 22.285 A 19.966 19.966 0 0 0 88.072 23.732 Q 88.276 24.47 88.518 25.083 A 8.279 8.279 0 0 0 89.043 26.182 Q 89.523 27.01 90.117 27.354 A 1.765 1.765 0 0 0 91.016 27.598 A 2.07 2.07 0 0 0 92.016 27.333 A 2.963 2.963 0 0 0 92.52 26.983 A 7.97 7.97 0 0 0 93.607 25.847 A 9.175 9.175 0 0 0 93.848 25.528 A 14.51 14.51 0 0 0 94.912 23.819 Q 95.371 22.949 95.625 22.422 A 0.748 0.748 0 0 1 95.782 22.209 A 5.862 5.862 0 0 1 95.908 21.68 Q 96.152 20.84 96.611 20.215 A 3.473 3.473 0 0 1 97.399 19.431 A 3.229 3.229 0 0 1 97.705 19.238 A 2.834 2.834 0 0 1 99.102 18.887 A 2.255 2.255 0 0 1 99.949 19.055 A 2.582 2.582 0 0 1 99.99 19.072 A 2.55 2.55 0 0 1 100.781 19.6 A 2.55 2.55 0 0 1 101.277 20.28 A 2.988 2.988 0 0 1 101.348 20.43 A 2.505 2.505 0 0 1 101.532 21.094 A 3.232 3.232 0 0 1 101.563 21.543 A 4.158 4.158 0 0 1 101.357 22.859 A 3.918 3.918 0 0 1 101.289 23.047 A 5.057 5.057 0 0 1 100.537 24.356 A 6.256 6.256 0 0 1 99.637 25.275 A 7.135 7.135 0 0 1 99.395 25.469 Q 98.731 25.977 97.969 26.348 A 3.038 3.038 0 0 0 99.024 27.256 A 2.789 2.789 0 0 0 99.766 27.518 Q 100.151 27.598 100.606 27.598 A 3.437 3.437 0 0 0 101.942 27.34 A 3.301 3.301 0 0 0 102.344 27.139 Q 103.125 26.68 103.77 25.938 Q 104.414 25.196 104.922 24.278 Q 105.43 23.36 105.84 22.442 A 0.808 0.808 0 0 1 105.949 22.264 A 0.647 0.647 0 0 1 106.113 22.119 Q 106.289 22.012 106.504 22.012 A 0.763 0.763 0 0 1 106.766 22.055 A 0.662 0.662 0 0 1 107.041 22.246 Q 107.246 22.481 107.246 22.754 Q 107.246 22.852 107.227 22.92 A 0.734 0.734 0 0 1 107.202 22.991 A 1 1 0 0 1 107.168 23.066 A 21.05 21.05 0 0 1 106.213 24.935 Q 105.273 26.552 104.229 27.539 A 5.853 5.853 0 0 1 102.644 28.627 A 5.041 5.041 0 0 1 100.625 29.082 A 5.624 5.624 0 0 1 99.564 28.987 A 4.128 4.128 0 0 1 98.399 28.584 A 4.767 4.767 0 0 1 97.136 27.627 A 4.466 4.466 0 0 1 96.856 27.295 A 5.433 5.433 0 0 1 95.957 25.508 A 7.03 7.03 0 0 1 95.859 25.142 A 23.273 23.273 0 0 1 95.684 25.43 A 14.976 14.976 0 0 1 94.829 26.666 A 16.393 16.393 0 0 1 94.766 26.748 A 8.233 8.233 0 0 1 93.662 27.92 Q 93.066 28.438 92.393 28.76 Q 91.719 29.082 90.957 29.082 A 3.168 3.168 0 0 1 89.79 28.872 A 2.929 2.929 0 0 1 88.945 28.36 A 5.43 5.43 0 0 1 88.016 27.312 A 7.084 7.084 0 0 1 87.52 26.465 A 11.38 11.38 0 0 1 86.903 24.96 A 14.506 14.506 0 0 1 86.634 24.046 A 12.996 12.996 0 0 1 86.546 24.187 A 17.336 17.336 0 0 1 86.406 24.404 A 11.436 11.436 0 0 1 86.065 24.898 A 15.098 15.098 0 0 1 85.664 25.42 A 7.916 7.916 0 0 1 84.727 26.406 Q 84.219 26.856 83.633 27.149 Q 83.047 27.442 82.422 27.442 A 4.75 4.75 0 0 1 81.648 27.382 Q 81.22 27.311 80.864 27.156 A 2.762 2.762 0 0 1 80.703 27.08 A 5.469 5.469 0 0 1 80.104 26.725 Q 79.791 26.51 79.551 26.27 A 6.05 6.05 0 0 1 78.789 27.52 Q 78.34 28.086 77.793 28.506 A 4.579 4.579 0 0 1 76.631 29.16 Q 76.016 29.395 75.371 29.395 A 3.356 3.356 0 0 1 74.276 29.222 A 2.926 2.926 0 0 1 73.34 28.692 A 4.871 4.871 0 0 1 72.442 27.688 A 6.448 6.448 0 0 1 71.943 26.807 A 10.368 10.368 0 0 1 71.421 25.444 A 14.005 14.005 0 0 1 71.207 24.666 A 23.64 23.64 0 0 1 71.104 24.844 A 16.138 16.138 0 0 1 70.607 25.63 A 20.109 20.109 0 0 1 70.215 26.192 Q 69.707 26.895 69.082 27.481 A 6.18 6.18 0 0 1 67.734 28.447 Q 67.012 28.828 66.211 28.828 A 2.929 2.929 0 0 1 65.198 28.659 A 2.6 2.6 0 0 1 64.307 28.106 A 4.114 4.114 0 0 1 63.284 26.573 A 4.952 4.952 0 0 1 63.184 26.289 A 6.38 6.38 0 0 1 62.406 27.343 A 5.161 5.161 0 0 1 61.602 28.057 Q 60.684 28.711 59.766 28.711 A 3.419 3.419 0 0 1 58.976 28.623 A 2.876 2.876 0 0 1 58.457 28.447 A 2.817 2.817 0 0 1 57.461 27.705 A 3.387 3.387 0 0 1 56.893 26.76 A 3.939 3.939 0 0 1 56.826 26.582 A 4.061 4.061 0 0 1 56.658 25.915 A 23.761 23.761 0 0 1 56.484 26.162 A 8.992 8.992 0 0 1 55.361 27.461 A 6.34 6.34 0 0 1 54.033 28.438 A 3.066 3.066 0 0 1 52.539 28.828 Q 51.858 28.828 51.377 28.623 A 1.902 1.902 0 0 1 51.113 28.487 Q 50.566 28.145 50.254 27.588 A 3.634 3.634 0 0 1 49.856 26.483 A 4.144 4.144 0 0 1 49.834 26.358 A 8.609 8.609 0 0 1 49.727 25 A 7.028 7.028 0 0 1 49.733 24.708 Q 49.74 24.533 49.756 24.336 A 18.87 18.87 0 0 1 49.805 23.807 A 22.028 22.028 0 0 1 49.834 23.555 Q 49.883 23.145 49.912 22.735 A 11.525 11.525 0 0 0 49.939 22.189 A 9.874 9.874 0 0 0 49.941 21.953 Q 49.941 21.328 49.746 21.104 A 1.171 1.171 0 0 0 49.652 21.007 Q 49.549 20.912 49.458 20.888 A 0.242 0.242 0 0 0 49.395 20.879 Q 49.102 20.879 48.732 21.196 A 2.632 2.632 0 0 0 48.682 21.24 Q 48.354 21.536 47.999 21.983 A 9.606 9.606 0 0 0 47.842 22.188 A 17.173 17.173 0 0 0 47.341 22.893 A 21.997 21.997 0 0 0 46.943 23.506 Q 46.484 24.238 46.084 24.961 A 69.442 69.442 0 0 0 45.698 25.667 A 58.659 58.659 0 0 0 45.342 26.338 A 36.697 36.697 0 0 0 45.18 26.651 Q 44.983 27.037 44.848 27.329 A 12.038 12.038 0 0 0 44.805 27.422 A 5.702 5.702 0 0 1 44.591 27.831 Q 44.363 28.224 44.134 28.434 A 1.234 1.234 0 0 1 44.024 28.526 A 1.604 1.604 0 0 1 43.681 28.718 A 1.22 1.22 0 0 1 43.223 28.809 A 1.521 1.521 0 0 1 42.822 28.759 A 1.121 1.121 0 0 1 42.315 28.467 A 1.113 1.113 0 0 1 42.029 27.961 Q 41.982 27.786 41.974 27.578 A 2.19 2.19 0 0 1 41.973 27.5 A 1.688 1.688 0 0 1 41.975 27.428 Q 41.98 27.311 41.999 27.101 A 20.197 20.197 0 0 1 42.012 26.963 A 93.661 93.661 0 0 1 42.044 26.641 Q 42.058 26.497 42.075 26.339 A 178.269 178.269 0 0 1 42.109 26.006 A 76.365 76.365 0 0 0 42.168 25.427 A 94.928 94.928 0 0 0 42.227 24.805 A 926.277 926.277 0 0 1 42.344 23.526 A 64.21 64.21 0 0 0 42.398 22.913 A 51.23 51.23 0 0 0 42.441 22.344 A 20.074 20.074 0 0 0 42.459 22.081 Q 42.481 21.704 42.481 21.426 A 11.074 11.074 0 0 0 42.455 20.658 A 9.83 9.83 0 0 0 42.441 20.488 Q 42.407 20.095 42.313 19.971 A 0.181 0.181 0 0 0 42.285 19.942 A 0.298 0.298 0 0 0 42.197 19.995 Q 42.016 20.142 41.672 20.657 A 11.253 11.253 0 0 0 41.66 20.674 A 5.626 5.626 0 0 0 41.42 21.075 Q 41.035 21.773 40.508 23.047 A 0.728 0.728 0 0 1 40.507 23.048 A 1.044 1.044 0 0 1 40.5 23.067 A 1.292 1.292 0 0 1 40.488 23.096 A 6.438 6.438 0 0 1 40.41 23.274 A 5.204 5.204 0 0 1 40.332 23.438 Q 40 24.024 39.561 24.561 Q 39.121 25.098 38.525 25.498 A 5.056 5.056 0 0 1 37.461 26.039 A 5.8 5.8 0 0 1 37.188 26.133 A 4.623 4.623 0 0 1 36.273 26.319 Q 35.916 26.356 35.527 26.348 Q 35.039 26.348 34.668 26.27 Q 34.375 26.856 33.965 27.354 Q 33.555 27.852 33.018 28.223 A 4.531 4.531 0 0 1 31.94 28.767 A 5.115 5.115 0 0 1 31.816 28.809 A 4.451 4.451 0 0 1 30.801 29.007 A 5.344 5.344 0 0 1 30.371 29.024 A 4.545 4.545 0 0 1 29.288 28.899 A 3.918 3.918 0 0 1 28.691 28.701 A 4.06 4.06 0 0 1 27.363 27.803 A 3.952 3.952 0 0 1 26.556 26.591 A 4.59 4.59 0 0 1 26.484 26.416 A 4.687 4.687 0 0 1 26.317 25.884 A 16.88 16.88 0 0 1 26.113 26.172 Q 25.606 26.875 24.981 27.471 A 5.925 5.925 0 0 1 23.623 28.447 Q 22.891 28.828 22.051 28.828 A 3.343 3.343 0 0 1 21.148 28.712 A 2.611 2.611 0 0 1 20.137 28.174 Q 19.375 27.52 19.004 26.309 A 6.706 6.706 0 0 1 18.264 27.305 A 5.248 5.248 0 0 1 17.412 28.067 Q 16.504 28.711 15.586 28.711 A 3.453 3.453 0 0 1 14.842 28.634 A 2.801 2.801 0 0 1 14.258 28.438 A 3.009 3.009 0 0 1 13.242 27.666 A 3.237 3.237 0 0 1 12.722 26.824 A 3.946 3.946 0 0 1 12.588 26.465 A 4.645 4.645 0 0 1 12.427 25.773 A 43.057 43.057 0 0 1 11.884 26.666 A 50.923 50.923 0 0 1 11.416 27.403 A 57.079 57.079 0 0 1 9.976 29.517 A 63.086 63.086 0 0 1 9.756 29.824 A 59.41 59.41 0 0 1 7.91 32.246 A 10.143 10.143 0 0 1 8.717 33.331 Q 9.064 33.864 9.39 34.488 A 16.703 16.703 0 0 1 9.483 34.668 A 20.444 20.444 0 0 1 10.59 37.311 A 22.899 22.899 0 0 1 10.742 37.774 A 26.108 26.108 0 0 1 11.572 41.153 A 20.555 20.555 0 0 1 11.817 43.018 A 16.435 16.435 0 0 1 11.875 44.375 A 14.326 14.326 0 0 1 11.843 45.37 Q 11.771 46.39 11.544 47.087 A 3.485 3.485 0 0 1 11.543 47.09 A 6.796 6.796 0 0 1 11.299 47.733 Q 11.161 48.044 11.005 48.293 A 3.002 3.002 0 0 1 10.742 48.653 Q 10.371 49.086 9.975 49.28 A 1.613 1.613 0 0 1 9.766 49.365 A 4.286 4.286 0 0 1 9.435 49.46 Q 9.137 49.531 8.906 49.531 A 2.764 2.764 0 0 1 8.194 49.444 A 1.985 1.985 0 0 1 7.217 48.858 Q 6.75 48.346 6.452 47.475 A 7.116 7.116 0 0 1 6.279 46.885 Q 5.957 45.586 5.869 43.672 Q 5.794 42.027 5.783 39.95 A 135.304 135.304 0 0 1 5.781 39.258 A 190.411 190.411 0 0 1 5.811 35.938 Q 5.84 34.258 5.899 32.637 A 199.747 199.747 0 0 1 5.997 30.277 A 176.804 176.804 0 0 1 6.035 29.522 A 127.852 127.852 0 0 1 6.118 28.084 A 100.404 100.404 0 0 1 6.211 26.758 Q 5.586 27.696 4.815 28.203 A 3.042 3.042 0 0 1 3.106 28.711 A 3.131 3.131 0 0 1 2.286 28.607 A 2.731 2.731 0 0 1 1.826 28.438 A 2.949 2.949 0 0 1 0.84 27.686 A 3.264 3.264 0 0 1 0.272 26.721 A 3.784 3.784 0 0 1 0.215 26.563 A 4.246 4.246 0 0 1 0.008 25.451 A 4.947 4.947 0 0 1 0 25.176 A 7.645 7.645 0 0 1 0.114 23.827 A 5.777 5.777 0 0 1 0.518 22.49 A 6.785 6.785 0 0 1 1.19 21.304 A 5.601 5.601 0 0 1 1.836 20.547 Q 2.637 19.766 3.604 19.375 A 5.557 5.557 0 0 1 4.612 19.07 A 4.433 4.433 0 0 1 5.469 18.985 Q 6.074 18.985 6.582 19.151 Q 7.09 19.317 7.441 19.512 A 5.885 5.885 0 0 1 7.666 19.643 Q 7.765 19.704 7.848 19.761 A 2.547 2.547 0 0 1 7.998 19.873 A 40.442 40.442 0 0 1 8.046 19.912 Q 8.195 20.033 8.22 20.056 A 0.104 0.104 0 0 1 8.223 20.059 A 0.645 0.645 0 0 1 8.429 20.462 A 0.914 0.914 0 0 1 8.438 20.586 A 0.745 0.745 0 0 1 8.233 21.104 A 0.679 0.679 0 0 1 7.759 21.326 A 0.929 0.929 0 0 1 7.695 21.328 A 0.862 0.862 0 0 1 7.583 21.321 Q 7.483 21.308 7.412 21.27 A 1.196 1.196 0 0 1 7.302 21.201 Q 7.25 21.165 7.195 21.12 A 1.952 1.952 0 0 1 7.188 21.113 A 4.226 4.226 0 0 0 7.078 21.029 Q 6.954 20.936 6.78 20.817 A 16.392 16.392 0 0 0 6.611 20.703 Q 6.238 20.454 5.517 20.45 A 4.276 4.276 0 0 0 5.488 20.449 A 3.063 3.063 0 0 0 4.883 20.513 Q 4.556 20.579 4.199 20.713 A 3.803 3.803 0 0 0 3.16 21.31 A 4.537 4.537 0 0 0 2.891 21.543 A 4.176 4.176 0 0 0 2.225 22.353 A 5.43 5.43 0 0 0 1.875 22.998 Q 1.465 23.887 1.465 25.137 Q 1.465 26.035 1.865 26.631 A 1.296 1.296 0 0 0 2.706 27.183 A 2.097 2.097 0 0 0 3.145 27.227 A 1.545 1.545 0 0 0 3.552 27.169 Q 3.729 27.12 3.918 27.032 A 3.077 3.077 0 0 0 4.092 26.944 A 3.031 3.031 0 0 0 4.615 26.576 Q 4.837 26.385 5.052 26.136 A 5.096 5.096 0 0 0 5.088 26.094 A 5.112 5.112 0 0 0 5.542 25.459 Q 5.743 25.13 5.923 24.74 A 8.324 8.324 0 0 0 5.947 24.688 A 6.191 6.191 0 0 0 6.289 23.718 A 8.366 8.366 0 0 0 6.484 22.735 A 0.725 0.725 0 0 1 6.738 22.276 A 0.726 0.726 0 0 1 7.227 22.09 A 0.71 0.71 0 0 1 7.512 22.146 A 0.679 0.679 0 0 1 7.744 22.315 Q 7.949 22.539 7.949 22.832 A 0.439 0.439 0 0 1 7.949 22.851 Q 7.943 22.951 7.9 23.506 A 455.224 455.224 0 0 0 7.874 23.849 Q 7.832 24.402 7.774 25.186 A 586.26 586.26 0 0 0 7.701 26.162 Q 7.653 26.829 7.598 27.598 Q 7.5 28.965 7.422 30.488 Z M 72.07 20.567 A 156.813 156.813 0 0 0 73.077 18.012 A 178.564 178.564 0 0 0 73.418 17.119 A 49.803 49.803 0 0 0 74.649 13.438 A 38.115 38.115 0 0 0 75.547 9.649 A 20.836 20.836 0 0 0 75.899 5.879 A 16.125 16.125 0 0 0 75.86 4.792 A 18.638 18.638 0 0 0 75.83 4.404 A 8.938 8.938 0 0 0 75.719 3.577 A 7.157 7.157 0 0 0 75.586 2.988 Q 75.41 2.344 75.108 1.914 A 1.146 1.146 0 0 0 74.88 1.67 A 0.857 0.857 0 0 0 74.336 1.485 Q 74.205 1.485 74.013 1.628 A 1.73 1.73 0 0 0 73.936 1.69 A 1.276 1.276 0 0 0 73.78 1.848 Q 73.632 2.025 73.475 2.308 A 5.278 5.278 0 0 0 73.418 2.412 Q 73.145 2.93 72.871 3.848 A 12.536 12.536 0 0 0 72.677 4.589 Q 72.596 4.937 72.52 5.336 A 27.606 27.606 0 0 0 72.373 6.182 A 30.306 30.306 0 0 0 72.216 7.325 Q 72.139 7.962 72.075 8.688 A 59.97 59.97 0 0 0 72.002 9.59 A 48.728 48.728 0 0 0 71.913 11.183 Q 71.856 12.593 71.856 14.278 A 86.777 86.777 0 0 0 71.875 16.104 A 138.021 138.021 0 0 0 71.897 17.009 A 118.956 118.956 0 0 0 71.924 17.871 A 85.847 85.847 0 0 0 71.956 18.677 A 65.881 65.881 0 0 0 71.992 19.414 Q 72.027 20.043 72.062 20.469 A 20.173 20.173 0 0 0 72.07 20.567 Z M 87.168 15.235 Q 87.168 16.485 87.227 17.637 A 55.094 55.094 0 0 0 87.337 19.31 A 48.412 48.412 0 0 0 87.383 19.844 A 42.547 42.547 0 0 0 88.569 17.356 A 48.15 48.15 0 0 0 88.945 16.475 A 41.372 41.372 0 0 0 90.254 12.862 A 32.914 32.914 0 0 0 91.162 9.229 A 19.692 19.692 0 0 0 91.464 6.929 A 16.621 16.621 0 0 0 91.504 5.781 Q 91.504 4.008 91.284 3.01 A 3.964 3.964 0 0 0 91.133 2.481 A 2.954 2.954 0 0 0 90.958 2.093 Q 90.712 1.643 90.381 1.526 A 0.726 0.726 0 0 0 90.137 1.485 A 0.661 0.661 0 0 0 89.784 1.593 Q 89.56 1.732 89.346 2.051 A 4.435 4.435 0 0 0 89.073 2.522 Q 88.843 2.976 88.633 3.594 A 15.324 15.324 0 0 0 88.354 4.516 Q 88.224 4.993 88.105 5.532 A 27.207 27.207 0 0 0 88.027 5.899 Q 87.754 7.227 87.568 8.75 A 54.883 54.883 0 0 0 87.334 11.112 A 61.911 61.911 0 0 0 87.275 11.934 A 51.108 51.108 0 0 0 87.168 15.235 Z M 7.285 33.809 A 79.169 79.169 0 0 0 7.259 34.838 A 71.415 71.415 0 0 0 7.256 34.981 Q 7.246 35.547 7.246 36.094 A 585.943 585.943 0 0 0 7.251 38.528 A 470.992 470.992 0 0 0 7.266 40.791 Q 7.285 42.969 7.432 44.58 A 16.745 16.745 0 0 0 7.542 45.521 Q 7.685 46.482 7.92 47.119 A 2.544 2.544 0 0 0 8.089 47.492 Q 8.403 48.047 8.887 48.047 A 0.917 0.917 0 0 0 9.598 47.734 A 1.229 1.229 0 0 0 9.697 47.608 Q 10 47.168 10.156 46.563 Q 10.313 45.957 10.361 45.322 A 23.294 23.294 0 0 0 10.383 45.02 Q 10.41 44.59 10.41 44.297 Q 10.41 42.988 10.166 41.524 A 24.449 24.449 0 0 0 9.502 38.633 A 20.404 20.404 0 0 0 8.665 36.305 A 18.421 18.421 0 0 0 8.506 35.947 A 14.934 14.934 0 0 0 7.989 34.918 Q 7.701 34.399 7.398 33.966 A 8.753 8.753 0 0 0 7.285 33.809 Z M 97.383 25.078 A 4.762 4.762 0 0 0 98.486 24.434 A 4.725 4.725 0 0 0 99.175 23.776 A 4.252 4.252 0 0 0 99.336 23.574 Q 99.688 23.106 99.883 22.588 A 2.939 2.939 0 0 0 100.078 21.543 Q 100.078 21.14 99.939 20.871 A 0.905 0.905 0 0 0 99.785 20.654 Q 99.492 20.352 99.102 20.352 A 1.582 1.582 0 0 0 98.642 20.416 A 1.316 1.316 0 0 0 98.203 20.645 Q 97.832 20.938 97.598 21.406 A 3.755 3.755 0 0 0 97.326 22.136 A 4.488 4.488 0 0 0 97.256 22.451 Q 97.149 23.028 97.149 23.594 A 4.062 4.062 0 0 0 97.179 24.084 A 4.878 4.878 0 0 0 97.217 24.336 A 8.04 8.04 0 0 0 97.336 24.9 A 7.099 7.099 0 0 0 97.383 25.078 Z M 32.188 21.426 Q 32.188 21.797 32.285 22.207 A 3.575 3.575 0 0 0 32.55 22.943 A 3.995 3.995 0 0 0 32.588 23.018 A 4.084 4.084 0 0 0 33.096 23.779 Q 33.399 24.141 33.809 24.395 A 5.691 5.691 0 0 0 33.867 23.643 A 5.235 5.235 0 0 0 33.867 23.594 Q 33.867 23.067 33.789 22.52 A 6.708 6.708 0 0 0 33.669 21.886 A 5.463 5.463 0 0 0 33.565 21.514 Q 33.446 21.142 33.283 20.886 A 1.706 1.706 0 0 0 33.203 20.772 A 0.857 0.857 0 0 0 33.054 20.617 A 0.564 0.564 0 0 0 32.695 20.488 A 0.221 0.221 0 0 0 32.619 20.504 Q 32.521 20.54 32.383 20.664 Q 32.228 20.803 32.196 21.199 A 2.803 2.803 0 0 0 32.188 21.426 Z" vector-effect="non-scaling-stroke" />
  </g>
</svg>